<svg width="928pt" height="34pt" viewBox="0 0 928 34" xmlns="http://www.w3.org/2000/svg"><g id="fontsvg1697325087361" stroke-linecap="round" fill-rule="evenodd" fill="#1aea23"><path d="M 16.8 11.2 L 16.8 0 L 22.4 0 L 22.4 28 L 16.8 28 L 16.8 16.8 L 5.6 16.8 L 5.6 28 L 0 28 L 0 0 L 5.6 0 L 5.6 11.2 L 16.8 11.2 Z M 203.2 11.2 L 203.2 0 L 208.8 0 L 208.8 28 L 203.2 28 L 203.2 16.8 L 192 16.8 L 192 28 L 186.4 28 L 186.4 0 L 192 0 L 192 11.2 L 203.2 11.2 Z M 50.4 0 L 50.4 5.6 L 39.2 5.6 L 39.2 11.2 L 50.4 11.2 L 50.4 16.8 L 39.2 16.8 L 39.2 22.4 L 50.4 22.4 L 50.4 28 L 33.6 28 L 33.6 0 L 50.4 0 Z M 236.8 0 L 236.8 5.6 L 225.6 5.6 L 225.6 11.2 L 236.8 11.2 L 236.8 16.8 L 225.6 16.8 L 225.6 22.4 L 236.8 22.4 L 236.8 28 L 220 28 L 220 0 L 236.8 0 Z M 296.8 0 L 296.8 5.6 L 285.6 5.6 L 285.6 11.2 L 296.8 11.2 L 296.8 16.8 L 285.6 16.8 L 285.6 22.4 L 296.8 22.4 L 296.8 28 L 280 28 L 280 0 L 296.8 0 Z M 559.2 0 L 559.2 5.6 L 548 5.6 L 548 11.2 L 559.2 11.2 L 559.2 16.8 L 548 16.8 L 548 22.4 L 559.2 22.4 L 559.2 28 L 542.4 28 L 542.4 0 L 559.2 0 Z M 780 5.6 L 780 11.2 L 791.2 11.2 L 791.2 16.8 L 780 16.8 L 780 22.4 L 791.2 22.4 L 791.2 28 L 774.4 28 L 774.4 0 L 791.2 0 L 791.2 5.6 L 780 5.6 Z M 487.2 5.6 L 487.2 16.8 L 476 16.8 L 476 5.6 L 470.4 5.6 L 470.4 28 L 476 28 L 476 22.4 L 487.2 22.4 L 487.2 28 L 492.8 28 L 492.8 5.6 L 487.2 5.6 Z M 855.2 5.6 L 855.2 16.8 L 844 16.8 L 844 5.6 L 838.4 5.6 L 838.4 28 L 844 28 L 844 22.4 L 855.2 22.4 L 855.2 28 L 860.8 28 L 860.8 5.6 L 855.2 5.6 Z M 253.6 5.6 L 253.6 16.8 L 264.8 16.8 L 264.8 22.4 L 253.6 22.4 L 253.6 28 L 248 28 L 248 0 L 264.8 0 L 264.8 5.6 L 253.6 5.6 Z M 812.8 5.6 L 812.8 16.8 L 824 16.8 L 824 22.4 L 812.8 22.4 L 812.8 28 L 807.2 28 L 807.2 0 L 824 0 L 824 5.6 L 812.8 5.6 Z M 358.4 11.2 L 358.4 16.8 L 364 16.8 L 364 11.2 L 369.6 11.2 L 369.6 28 L 375.2 28 L 375.2 0 L 369.6 0 L 369.6 5.6 L 364 5.6 L 364 11.2 L 358.4 11.2 Z M 514.4 11.2 L 514.4 16.8 L 520 16.8 L 520 11.2 L 525.6 11.2 L 525.6 28 L 531.2 28 L 531.2 0 L 525.6 0 L 525.6 5.6 L 520 5.6 L 520 11.2 L 514.4 11.2 Z M 67.2 0 L 67.2 22.4 L 78.4 22.4 L 78.4 28 L 61.6 28 L 61.6 0 L 67.2 0 Z M 92.8 0 L 92.8 22.4 L 104 22.4 L 104 28 L 87.2 28 L 87.2 0 L 92.8 0 Z M 160 0 L 176.8 0 L 176.8 5.6 L 171.2 5.6 L 171.2 28 L 165.6 28 L 165.6 5.6 L 160 5.6 L 160 0 Z M 656.8 0 L 656.8 22.4 L 668 22.4 L 668 28 L 651.2 28 L 651.2 0 L 656.8 0 Z M 682.4 22.4 L 682.4 28 L 693.6 28 L 693.6 22.4 L 693.6 0 L 699.2 0 L 699.2 22.4 L 693.6 22.4 L 682.4 22.4 Z M 352.8 0 L 352.8 5.6 L 358.4 5.6 L 358.4 11.2 L 352.8 11.2 L 352.8 28 L 347.2 28 L 347.2 0 L 352.8 0 Z M 443.2 0 L 443.2 5.6 L 448.8 5.6 L 448.8 11.2 L 443.2 11.2 L 443.2 28 L 437.6 28 L 437.6 0 L 443.2 0 Z M 448.8 11.2 L 448.8 16.8 L 454.4 16.8 L 454.4 28 L 460 28 L 460 0 L 454.4 0 L 454.4 11.2 L 448.8 11.2 Z M 508.8 0 L 508.8 5.6 L 514.4 5.6 L 514.4 11.2 L 508.8 11.2 L 508.8 28 L 503.2 28 L 503.2 0 L 508.8 0 Z M 587.2 28 L 587.2 0 L 592.8 0 L 592.8 28 L 587.2 28 Z M 710.4 28 L 710.4 0 L 716 0 L 716 28 L 710.4 28 Z M 395.2 16.8 L 395.2 28 L 400.8 28 L 400.8 16.8 L 400.8 11.2 L 406.4 11.2 L 406.4 16.8 L 400.8 16.8 L 395.2 16.8 Z M 676.8 22.4 L 676.8 0 L 682.4 0 L 682.4 22.4 L 676.8 22.4 Z M 880 22.4 L 880 28 L 885.6 28 L 885.6 22.4 L 885.6 11.2 L 891.2 11.2 L 891.2 22.4 L 885.6 22.4 L 880 22.4 Z M 112 22.4 L 112 5.6 L 117.6 5.6 L 117.6 22.4 L 112 22.4 Z M 608 5.6 L 608 0 L 624.8 0 L 624.8 5.6 L 608 5.6 Z M 619.2 22.4 L 602.4 22.4 L 602.4 28 L 619.2 28 L 619.2 22.4 Z M 731.2 5.6 L 731.2 0 L 748 0 L 748 5.6 L 731.2 5.6 Z M 742.4 22.4 L 725.6 22.4 L 725.6 28 L 742.4 28 L 742.4 22.4 Z M 904.8 22.4 L 904.8 5.6 L 910.4 5.6 L 910.4 22.4 L 904.8 22.4 Z M 128.8 5.6 L 128.8 22.4 L 134.4 22.4 L 134.4 5.6 L 128.8 5.6 Z M 921.6 5.6 L 921.6 22.4 L 927.2 22.4 L 927.2 5.6 L 921.6 5.6 Z M 117.6 22.4 L 117.6 28 L 128.8 28 L 128.8 22.4 L 117.6 22.4 Z M 384 11.2 L 384 0 L 389.6 0 L 389.6 11.2 L 384 11.2 Z M 608 11.2 L 608 16.8 L 619.2 16.8 L 619.2 11.2 L 608 11.2 Z M 731.2 11.2 L 731.2 16.8 L 742.4 16.8 L 742.4 11.2 L 731.2 11.2 Z M 868.8 11.2 L 868.8 0 L 874.4 0 L 874.4 11.2 L 868.8 11.2 Z M 910.4 22.4 L 910.4 28 L 921.6 28 L 921.6 22.4 L 910.4 22.4 Z M 117.6 5.6 L 117.6 0 L 128.8 0 L 128.8 5.6 L 117.6 5.6 Z M 264.8 16.8 L 270.4 16.8 L 270.4 5.6 L 264.8 5.6 L 264.8 16.8 Z M 406.4 11.2 L 406.4 0 L 412 0 L 412 11.2 L 406.4 11.2 Z M 476 0 L 487.2 0 L 487.2 5.6 L 476 5.6 L 476 0 Z M 824 16.8 L 829.6 16.8 L 829.6 5.6 L 824 5.6 L 824 16.8 Z M 844 0 L 855.2 0 L 855.2 5.6 L 844 5.6 L 844 0 Z M 874.4 11.2 L 874.4 22.4 L 880 22.4 L 880 11.2 L 874.4 11.2 Z M 891.2 11.2 L 891.2 0 L 896.8 0 L 896.8 11.2 L 891.2 11.2 Z M 910.4 5.6 L 910.4 0 L 921.6 0 L 921.6 5.6 L 910.4 5.6 Z M 602.4 11.2 L 602.4 5.6 L 608 5.6 L 608 11.2 L 602.4 11.2 Z M 619.2 16.8 L 619.2 22.4 L 624.8 22.4 L 624.8 16.8 L 619.2 16.8 Z M 725.6 11.2 L 725.6 5.6 L 731.2 5.6 L 731.2 11.2 L 725.6 11.2 Z M 742.4 16.8 L 742.4 22.4 L 748 22.4 L 748 16.8 L 742.4 16.8 Z M 308 33.6 L 308 28 L 313.6 28 L 313.6 33.6 L 308 33.6 Z M 264.8 22.4 L 264.8 28 L 270.4 28 L 270.4 22.4 L 264.8 22.4 Z M 313.6 28 L 313.6 22.4 L 319.2 22.4 L 319.2 28 L 313.6 28 Z M 389.6 11.2 L 395.2 11.2 L 395.2 16.8 L 389.6 16.8 L 389.6 11.2 Z M 791.2 11.2 L 796.8 11.2 L 796.8 5.6 L 791.2 5.6 L 791.2 11.2 Z M 791.2 16.8 L 791.2 22.4 L 796.8 22.4 L 796.8 16.8 L 791.2 16.8 Z M 824 22.4 L 824 28 L 829.6 28 L 829.6 22.4 L 824 22.4 Z" vector-effect="non-scaling-stroke"/></g></svg>